<svg xmlns="http://www.w3.org/2000/svg" viewBox="0 0 500 590">

  <!-- ===== STAR (white, flat) ===== -->
  <polygon
    points="250,14 299.8,152.8 448.2,157.4 332.4,247.6 374.1,391.4 250,308 125.9,391.4 167.6,247.6 51.8,157.4 200.2,152.8"
    fill="#ffffff"
    stroke="#0e1428"
    stroke-width="4"
    stroke-linejoin="round"
  />

  <!-- ===== ORBIT — BACK (behind ball, darker) ===== -->
  <path
    d="M 138,210 C 153,244 195,263 250,259 C 305,263 347,244 362,210"
    fill="none"
    stroke="#1a5aaa"
    stroke-width="26"
    stroke-linecap="round"
    opacity="0.75"
  />

  <!-- ===== BASKETBALL ===== -->
  <circle cx="250" cy="190" r="90" fill="#4a9fe3" stroke="#0a1a38" stroke-width="5"/>

  <!-- Seam lines -->
  <path d="M 250,100 Q 222,148 222,190 Q 222,232 250,280"
    fill="none" stroke="#0a1a38" stroke-width="4" stroke-linecap="round"/>
  <path d="M 250,100 Q 278,148 278,190 Q 278,232 250,280"
    fill="none" stroke="#0a1a38" stroke-width="4" stroke-linecap="round"/>
  <path d="M 163,175 Q 207,152 250,150 Q 293,152 337,175"
    fill="none" stroke="#0a1a38" stroke-width="4" stroke-linecap="round"/>
  <path d="M 163,205 Q 207,228 250,230 Q 293,228 337,205"
    fill="none" stroke="#0a1a38" stroke-width="4" stroke-linecap="round"/>

  <!-- ===== ORBIT — FRONT (in front of ball, with swoosh tip) ===== -->
  <path
    d="M 133,176 C 160,142 204,128 250,126 C 296,128 340,142 378,166 L 412,150"
    fill="none"
    stroke="#4a9fe3"
    stroke-width="26"
    stroke-linecap="round"
  />

  <!-- ===== IMBA TEXT ===== -->
  <text
    x="250" y="490"
    font-family="Impact, 'Arial Black', Arial, sans-serif"
    font-size="106"
    font-weight="900"
    text-anchor="middle"
    fill="#4a9fe3"
    stroke="#0a1a38"
    stroke-width="4"
    letter-spacing="5"
  >IMBA</text>

</svg>
